<?xml version="1.0" encoding="UTF-8"?>
<svg id="Layer_1" xmlns="http://www.w3.org/2000/svg" version="1.1" xmlns:xlink="http://www.w3.org/1999/xlink" viewBox="0 0 447 232.39">
  <!-- Generator: Adobe Illustrator 29.5.1, SVG Export Plug-In . SVG Version: 2.1.0 Build 141)  -->
  <defs>
    <style>
      .st0 {
        fill: #fff;
      }

      .st1 {
        fill: url(#linear-gradient1);
      }

      .st2 {
        fill: none;
      }

      .st3 {
        clip-path: url(#clippath-1);
      }

      .st4 {
        fill: url(#linear-gradient);
      }

      .st5 {
        clip-path: url(#clippath);
      }
    </style>
    <clipPath id="clippath">
      <path class="st2" d="M56.4,20.96c-1.69,0-3.07,1.38-3.07,3.07v15c0,1.69,1.38,3.11,3.11,3.11h24.14c2.61,0,4.73,2.12,4.73,4.73v24.14c0,1.69,1.38,3.11,3.11,3.11h15c1.69,0,3.07-1.38,3.07-3.07V25.69c-.04-2.61-2.15-4.73-4.76-4.73h-45.31Z"/>
    </clipPath>
    <linearGradient id="linear-gradient" x1="-275.31" y1="-390.15" x2="-274.96" y2="-390.15" gradientTransform="translate(41515.51 -58708.39) scale(150.6 -150.6)" gradientUnits="userSpaceOnUse">
      <stop offset="0" stop-color="#e52d1c"/>
      <stop offset="1" stop-color="#ee7203"/>
      <stop offset="1" stop-color="#ee7203"/>
    </linearGradient>
    <clipPath id="clippath-1">
      <path class="st2" d="M96.52,180.34c-5.86,2.36-6.46,9.14-6.42,11.26.04,2.12,0,23.65,0,23.65h7.48v-19.02c0-3.71-.07-6.49,1.62-8.33,1.69-1.84,4.38-1.66,7.31-1.66h1.91v-7.06c-.96,0-2.35-.08-3.92-.08-2.51,0-5.5.2-7.97,1.24M201.16,180.34c-5.86,2.36-6.46,9.14-6.42,11.26.04,2.12,0,23.65,0,23.65h7.48v-19.02c0-3.71-.07-6.49,1.62-8.33,1.69-1.84,4.38-1.66,7.31-1.66h1.91v-7.06c-.96,0-2.35-.08-3.92-.08-2.51,0-5.5.2-7.97,1.24M126.41,207.9c-1.66-.95-3.04-2.36-4.06-4.23-1.02-1.87-1.55-4.02-1.55-6.53s.53-4.66,1.55-6.49c1.02-1.84,2.36-3.25,4.06-4.2,1.69-.95,3.49-1.45,5.36-1.45s3.71.46,5.4,1.41c1.66.95,3.04,2.33,4.06,4.13,1.02,1.8,1.55,3.95,1.55,6.46,0,2.51-.53,4.69-1.55,6.56-1.02,1.91-2.36,3.32-4.06,4.31-1.66.99-3.46,1.48-5.4,1.48s-3.67-.49-5.36-1.45M125.99,180.2c-2.19,1.13-3.92,2.54-5.19,4.23v-5.33h-7.52v53.29h5.75c.99,0,1.8-.81,1.8-1.8l-.04-20.57c1.38,1.66,3.11,3.04,5.26,4.16,2.15,1.09,4.59,1.66,7.34,1.66,3.14,0,6-.81,8.61-2.4,2.61-1.62,4.66-3.85,6.14-6.71,1.48-2.86,2.22-6.11,2.22-9.74s-.74-6.85-2.22-9.63c-1.48-2.79-3.53-4.98-6.14-6.53-2.58-1.55-5.47-2.33-8.61-2.33-2.75,0-5.22.56-7.41,1.69M58.72,206.14c-2.01-2.12-3-5.15-3-9.03,0-2.65.49-4.87,1.45-6.67.99-1.8,2.29-3.18,3.92-4.09,1.66-.92,3.42-1.38,5.36-1.38s3.71.46,5.36,1.38c1.66.92,2.96,2.29,3.99,4.09,1.02,1.84,1.52,4.06,1.52,6.67s-.53,4.87-1.59,6.71-2.4,3.21-4.09,4.13c-1.66.92-3.46,1.38-5.4,1.38-3.04,0-5.54-1.06-7.52-3.18M57.21,180.76c-2.82,1.55-5.01,3.71-6.63,6.56-1.62,2.86-2.44,6.11-2.44,9.78s.78,6.99,2.36,9.81,3.74,5.01,6.49,6.56c2.75,1.55,5.82,2.33,9.28,2.33s6.63-.78,9.49-2.33c2.86-1.55,5.12-3.74,6.78-6.6,1.66-2.86,2.51-6.11,2.51-9.78s-.81-6.92-2.44-9.78c-1.62-2.86-3.85-5.05-6.63-6.56-2.79-1.52-5.93-2.29-9.39-2.29s-6.6.78-9.39,2.29M227.98,207.83c-1.69-.99-3.04-2.44-4.06-4.31-1.02-1.87-1.55-4.06-1.55-6.56s.53-4.66,1.55-6.46c1.02-1.8,2.36-3.18,4.02-4.13,1.66-.95,3.42-1.41,5.36-1.41s3.71.49,5.36,1.45c1.66.95,3,2.36,4.02,4.2,1.02,1.84,1.52,3.99,1.55,6.49,0,2.51-.53,4.66-1.55,6.53-1.02,1.87-2.36,3.28-4.02,4.23s-3.46,1.45-5.36,1.45-3.64-.49-5.33-1.48M223.11,180.8c-2.61,1.55-4.66,3.74-6.18,6.53-1.52,2.79-2.26,6-2.26,9.6s.74,6.88,2.26,9.74,3.56,5.08,6.14,6.67c2.58,1.59,5.4,2.4,8.51,2.4,2.79,0,5.29-.56,7.48-1.69,2.19-1.13,3.92-2.58,5.19-4.27v5.36h7.55v-34.9c0-.67-.53-1.2-1.2-1.2h-6.35v5.26c-1.27-1.66-2.96-3.04-5.08-4.16-2.12-1.09-4.62-1.66-7.45-1.66-3.14,0-6,.78-8.61,2.33M164.6,206.1c-2.01-2.12-3-5.12-3-9,0-2.65.49-4.87,1.45-6.67.99-1.8,2.29-3.18,3.92-4.09,1.62-.92,3.39-1.38,5.33-1.38s3.71.46,5.36,1.38c1.66.92,2.96,2.29,3.99,4.09,1.02,1.84,1.52,4.06,1.52,6.67s-.53,4.83-1.59,6.67c-1.06,1.84-2.4,3.21-4.09,4.13-1.69.92-3.49,1.38-5.36,1.38-3.04,0-5.54-1.06-7.52-3.18M163.05,180.73c-2.82,1.55-5.01,3.74-6.63,6.56-1.62,2.86-2.44,6.11-2.44,9.78s.78,6.99,2.36,9.81,3.74,5.01,6.49,6.56c2.75,1.55,5.82,2.33,9.32,2.33s6.6-.78,9.46-2.33c2.86-1.55,5.12-3.74,6.78-6.6s2.51-6.11,2.51-9.78-.81-6.92-2.44-9.78c-1.62-2.86-3.85-5.05-6.63-6.56-2.82-1.52-5.93-2.29-9.39-2.29s-6.6.78-9.39,2.29M291.29,187.22c1.84-1.66,4.06-2.47,6.63-2.47,2.82,0,5.19.85,7.13,2.51,1.94,1.66,2.93,3.88,2.96,6.63h-20.01c.35-2.82,1.45-5.05,3.28-6.67M288.79,180.73c-2.72,1.55-4.83,3.71-6.35,6.53-1.52,2.82-2.26,6.11-2.26,9.81s.78,6.99,2.33,9.81,3.71,5.01,6.42,6.56c2.75,1.55,5.82,2.33,9.28,2.33,4.23,0,7.8-1.06,10.66-3.18,2.86-2.12,4.83-4.83,5.93-8.15h-8.05c-1.66,3.35-4.48,5.05-8.51,5.05-2.82,0-5.19-.85-7.09-2.61s-3-4.06-3.21-6.95h27.6c.18-1.09.28-2.33.21-3.74,0-3.49-.74-6.6-2.22-9.28-1.48-2.68-3.53-4.76-6.21-6.25-2.65-1.48-5.68-2.22-9.11-2.22s-6.71.78-9.42,2.29M261.16,170.1v8.96h-4.27v6.11h4.27v20.01c0,3.53.88,6.07,2.68,7.66,1.8,1.59,4.38,2.36,7.73,2.36h5.89v-6.21h-4.59c-1.52,0-2.61-.28-3.25-.88-.64-.6-.95-1.59-.95-2.93v-20.01l8.82.04v-6.11h-8.79v-6.88c0-1.16-.95-2.12-2.12-2.12h-5.43ZM11.58,172.05c-3.56,1.98-6.39,4.76-8.47,8.29-2.05,3.53-3.11,7.52-3.11,12s1.02,8.47,3.11,12c2.08,3.53,4.91,6.32,8.43,8.29,3.56,2.01,7.48,3,11.75,3,4.83,0,9.18-1.16,12.95-3.53,3.78-2.36,6.53-5.72,8.22-10.09h-9c-1.16,2.4-2.82,4.2-4.91,5.36-2.08,1.16-4.52,1.76-7.27,1.76-3.04,0-5.72-.71-8.08-2.08-2.36-1.38-4.2-3.32-5.54-5.86-1.34-2.54-2.01-5.51-2.01-8.86s.67-6.32,2.01-8.86c1.34-2.51,3.18-4.48,5.54-5.82,2.36-1.38,5.05-2.05,8.08-2.05,2.75,0,5.19.6,7.27,1.76,2.08,1.16,3.74,2.96,4.91,5.36h9c-1.69-4.38-4.45-7.73-8.22-10.13-3.78-2.36-8.08-3.56-12.95-3.56-4.23,0-8.15,1.02-11.72,3"/>
    </clipPath>
    <linearGradient id="linear-gradient1" x1="-276.19" y1="-384.56" x2="-275.84" y2="-384.56" gradientTransform="translate(247125.39 -343886.42) scale(894.76 -894.76)" xlink:href="#linear-gradient"/>
  </defs>
  <g id="Ilustración_13">
    <g>
      <g>
        <path class="st0" d="M64.27,67.05v14.33H25.62v19.73h28.52v17.72h-28.52v34.02c0,2.12-1.73,3.85-3.85,3.85H2.82V63.14h57.52c2.19,0,3.92,1.76,3.92,3.92M134.67,86.22v70.48h-21.6v-9.6c-2.19,3.11-5.15,5.61-8.89,7.52-3.74,1.91-7.91,2.86-12.46,2.86-5.4,0-10.16-1.2-14.26-3.6-4.13-2.4-7.34-5.86-9.6-10.41-2.26-4.55-3.42-9.88-3.42-16.06v-41.18h17.26c2.33,0,4.2,1.87,4.2,4.2v34.09c0,4.73,1.24,8.36,3.67,10.98,2.44,2.61,5.72,3.92,9.85,3.92s7.55-1.31,9.99-3.92c2.44-2.61,3.67-6.28,3.67-10.98v-38.29h21.6ZM236.95,138.38v18.32h-10.98c-7.83,0-13.94-1.91-18.32-5.75-4.38-3.85-6.56-10.09-6.56-18.77v-28.06h-8.58v-17.93h8.58v-17.19h14.29c4.02,0,7.31,3.28,7.31,7.31v9.88h14.15v17.93h-14.15v28.3c0,2.12.49,3.64,1.52,4.55,1.02.92,2.68,1.38,5.05,1.38l7.69.04ZM307.88,93.49c4.87,5.36,7.34,12.7,7.34,22.06v41.18h-21.49v-38.29c0-4.73-1.24-8.36-3.67-10.98s-5.72-3.92-9.85-3.92-7.41,1.31-9.85,3.92c-2.44,2.61-3.67,6.28-3.67,10.98v38.29h-21.6V63.21h16.98c2.54,0,4.62,2.08,4.62,4.62v27.84c2.19-3.11,5.19-5.61,8.96-7.45,3.78-1.84,8.05-2.79,12.78-2.79,8.05,0,14.54,2.68,19.45,8.05M394.59,126.63h-48.88c.35,4.38,1.73,7.73,4.23,10.06,2.47,2.33,5.54,3.46,9.18,3.46,5.4,0,9.14-2.26,11.26-6.81h22.97c-1.16,4.62-3.32,8.79-6.39,12.49-3.07,3.71-6.92,6.6-11.58,8.72-4.62,2.12-9.81,3.14-15.53,3.14-6.92,0-13.06-1.48-18.46-4.41-5.4-2.93-9.6-7.16-12.63-12.63-3.04-5.47-4.55-11.86-4.55-19.2s1.48-13.73,4.48-19.2,7.16-9.67,12.56-12.63,11.58-4.41,18.56-4.41,12.88,1.45,18.18,4.31c5.29,2.86,9.46,6.95,12.46,12.25s4.48,11.5,4.48,18.56c.04,2.05-.11,4.13-.35,6.32M372.85,114.63c0-3.71-1.27-6.63-3.78-8.86-2.54-2.19-5.68-3.28-9.46-3.28s-6.67,1.06-9.18,3.14c-2.47,2.12-4.02,5.08-4.62,8.96l27.03.04ZM158.81,87.95c9.92-3.32,23.79-2.65,28.41-2.65v18.85s-4.62,0-8.26.32-6.95,0-10.59,3.32-3.21,10.48-3.21,16.27v32.64h-21.56v-42.63s-1.31-20.19,15.21-26.12M418.59,87.95c9.92-3.32,23.79-2.65,28.41-2.65v18.85s-4.62,0-8.26.32c-3.64.32-6.95,0-10.59,3.32-3.64,3.32-3.21,10.48-3.21,16.27v32.64h-21.56v-42.63s-1.31-20.19,15.21-26.12"/>
        <path class="st0" d="M122.67,0h-45.31c-1.69,0-3.07,1.38-3.07,3.07v15c0,1.69,1.38,3.11,3.11,3.11h24.14c2.61,0,4.73,2.12,4.73,4.73v24.14c0,1.69,1.38,3.11,3.11,3.11h15c1.69,0,3.07-1.38,3.07-3.07V4.76C127.4,2.12,125.28,0,122.67,0"/>
      </g>
      <g class="st5">
        <rect class="st4" x="53.33" y="20.96" width="53.15" height="53.15"/>
      </g>
      <g class="st3">
        <rect class="st1" y="169.05" width="315.82" height="63.35"/>
      </g>
    </g>
  </g>
</svg>